<?xml version="1.0" encoding="UTF-8" standalone="no"?>
<!-- Created with Inkscape (http://www.inkscape.org/) -->

<svg
   width="40"
   height="40"
   viewBox="0 0 40 40"
   version="1.1"
   id="svg8"
   inkscape:version="1.2.2 (732a01da63, 2022-12-09)"
   sodipodi:docname="spring.svg"
   inkscape:export-filename="spring.png"
   inkscape:export-xdpi="96"
   inkscape:export-ydpi="96"
   xmlns:inkscape="http://www.inkscape.org/namespaces/inkscape"
   xmlns:sodipodi="http://sodipodi.sourceforge.net/DTD/sodipodi-0.dtd"
   xmlns="http://www.w3.org/2000/svg"
   xmlns:svg="http://www.w3.org/2000/svg"
   xmlns:rdf="http://www.w3.org/1999/02/22-rdf-syntax-ns#"
   xmlns:cc="http://creativecommons.org/ns#"
   xmlns:dc="http://purl.org/dc/elements/1.1/">
  <defs
     id="defs2" />
  <sodipodi:namedview
     id="base"
     pagecolor="#ffffff"
     bordercolor="#666666"
     borderopacity="1.0"
     inkscape:pageopacity="0.0"
     inkscape:pageshadow="2"
     inkscape:zoom="15.839192"
     inkscape:cx="7.0395006"
     inkscape:cy="25.190679"
     inkscape:document-units="px"
     inkscape:current-layer="layer1"
     showgrid="true"
     inkscape:window-width="2880"
     inkscape:window-height="1586"
     inkscape:window-x="5749"
     inkscape:window-y="-11"
     inkscape:window-maximized="1"
     units="mm"
     inkscape:showpageshadow="2"
     inkscape:pagecheckerboard="0"
     inkscape:deskcolor="#d1d1d1">
    <inkscape:grid
       type="xygrid"
       id="grid3450"
       spacingx="2"
       spacingy="2"
       empspacing="10"
       enabled="true" />
  </sodipodi:namedview>
  <metadata
     id="metadata5">
    <rdf:RDF>
      <cc:Work
         rdf:about="">
        <dc:format>image/svg+xml</dc:format>
        <dc:type
           rdf:resource="http://purl.org/dc/dcmitype/StillImage" />
      </cc:Work>
    </rdf:RDF>
  </metadata>
  <g
     inkscape:label="Layer 1"
     inkscape:groupmode="layer"
     id="layer1"
     transform="translate(0,-749.3333)">
    <g
       id="g3483"
       transform="matrix(0.94190537,0,0,1.0334041,0.71170511,-12.916055)"
       style="stroke-width:1.01359">
      <g
         transform="matrix(0.26458333,0,0,0.26458333,-283.79622,662.81093)"
         id="g1683"
         style="stroke-width:1.01359">
        <g
           id="use1681"
           style="stroke-width:1.01359">
          <path
             fill="#98b6b8"
             stroke="none"
             d="m 1127.45,422.85 q 1.4,-0.4 2.45,-1.45 1.1,-1.1 1.45,-2.55 h -40.7 q 0.35,1.45 1.45,2.55 1.05,1.05 2.45,1.45 h 32.9 m -31.35,4.55 q 1.6,1.6 3.9,1.6 h 22 q 2.3,0 3.9,-1.6 1.1,-1.1 1.45,-2.55 h -32.7 q 0.35,1.45 1.45,2.55 m 37.8,-17.8 q -1.6,-1.6 -3.9,-1.6 h -38 q -2.3,0 -3.9,1.6 -1.25,1.25 -1.5,2.9 0.25,1.65 1.5,2.9 1.05,1.05 2.45,1.45 h 40.9 q 1.4,-0.4 2.45,-1.45 1.25,-1.25 1.55,-2.9 -0.3,-1.65 -1.55,-2.9 z"
             id="path3405"
             style="stroke-width:1.04438" />
          <path
             fill="#84a4a6"
             stroke="none"
             d="m 1094.5,423.5 q 0,0.7 0.15,1.35 h 32.7 q 0.15,-0.65 0.15,-1.35 0,-0.35 -0.05,-0.65 h -32.9 q -0.05,0.3 -0.05,0.65 m 36.85,-4.65 q 0.15,-0.65 0.15,-1.35 0,-0.35 -0.05,-0.65 h -40.9 q -0.05,0.3 -0.05,0.65 0,0.7 0.15,1.35 z"
             id="path3407"
             style="stroke-width:1.04438" />
          <path
             fill="#b1cccd"
             stroke="none"
             d="m 1135.45,412.5 q 0.05,-0.5 0.05,-1 0,-2.3 -1.6,-3.9 -1.6,-1.6 -3.9,-1.6 h -38 q -2.3,0 -3.9,1.6 -1.6,1.6 -1.6,3.9 0,0.5 0.1,1 0.25,-1.65 1.5,-2.9 1.6,-1.6 3.9,-1.6 h 38 q 2.3,0 3.9,1.6 1.25,1.25 1.55,2.9 z"
             id="path3409"
             style="stroke-width:1.04438" />
        </g>
      </g>
      <g
         transform="matrix(0.26458333,0,0,0.26458333,-283.79622,662.81093)"
         id="g2519"
         style="stroke-width:1.01359">
        <g
           id="use2517"
           style="stroke-width:1.01359">
          <path
             fill="#e86a17"
             stroke="none"
             d="m 1141.95,394.1 -64.25,-1.35 q -3.9,-0.1 -3.75,4 l 0.75,11.25 q 0.45,3.95 4.3,4.1 l 63,1.35 q 3.85,0 4,-3.9 v -11.3 q -0.15,-4.1 -4.05,-4.15 z"
             id="path3399"
             style="stroke-width:1.04438" />
          <path
             fill="#f5873f"
             stroke="none"
             d="m 1077.55,390.6 q -4.1,-0.1 -3.75,4.25 l 0.15,1.9 q -0.15,-4.1 3.75,-4 l 64.25,1.35 q 3.9,0.05 4.05,4.15 v -1.9 q -0.05,-4.35 -4.1,-4.45 z"
             id="path3401"
             style="stroke-width:1.04438" />
        </g>
      </g>
    </g>
    <g
       id="g3472"
       transform="translate(0.69392079,-20.213048)">
      <g
         transform="matrix(0.24921246,0,0,0.24645937,-267.2914,671.49231)"
         id="g2835"
         style="stroke-width:1.06759">
        <g
           id="use2833"
           style="stroke-width:1.06759">
          <path
             fill="#98b6b8"
             stroke="none"
             d="m 1094.65,474.85 q 0.35,1.45 1.45,2.55 1.6,1.6 3.9,1.6 h 22 q 2.3,0 3.9,-1.6 1.1,-1.1 1.45,-2.55 h -32.7 m -4,-6 q 0.35,1.45 1.45,2.55 1.05,1.05 2.45,1.45 h 32.9 q 1.4,-0.4 2.45,-1.45 1.1,-1.1 1.45,-2.55 h -40.7 M 1092,458 q -2.3,0 -3.9,1.6 -1.25,1.25 -1.5,2.9 0.25,1.65 1.5,2.9 1.05,1.05 2.45,1.45 h 40.9 q 1.4,-0.4 2.45,-1.45 1.25,-1.25 1.55,-2.9 -0.3,-1.65 -1.55,-2.9 -1.6,-1.6 -3.9,-1.6 z"
             id="path3379"
             style="stroke-width:1.10002" />
          <path
             fill="#84a4a6"
             stroke="none"
             d="m 1094.55,472.85 q -0.05,0.3 -0.05,0.65 0,0.7 0.15,1.35 h 32.7 q 0.15,-0.65 0.15,-1.35 0,-0.35 -0.05,-0.65 h -32.9 m -4,-6 q -0.05,0.3 -0.05,0.65 0,0.7 0.15,1.35 h 40.7 q 0.15,-0.65 0.15,-1.35 0,-0.35 -0.05,-0.65 z"
             id="path3381"
             style="stroke-width:1.10002" />
          <path
             fill="#b1cccd"
             stroke="none"
             d="m 1135.45,462.5 q 0.05,-0.5 0.05,-1 0,-2.3 -1.6,-3.9 -1.6,-1.6 -3.9,-1.6 h -38 q -2.3,0 -3.9,1.6 -1.6,1.6 -1.6,3.9 0,0.5 0.1,1 0.25,-1.65 1.5,-2.9 1.6,-1.6 3.9,-1.6 h 38 q 2.3,0 3.9,1.6 1.25,1.25 1.55,2.9 z"
             id="path3383"
             style="stroke-width:1.10002" />
        </g>
      </g>
      <g
         transform="matrix(0.24921246,0,0,0.24645937,-267.2914,671.49231)"
         id="g2839"
         style="stroke-width:1.06759">
        <g
           id="use2837"
           style="stroke-width:1.06759">
          <path
             fill="#e86a17"
             stroke="none"
             d="m 1146,458.25 q -0.15,-4.1 -4.05,-4.15 l -64.25,-1.35 q -3.9,-0.1 -3.75,4 l 0.75,11.25 q 0.45,3.95 4.3,4.1 l 63,1.35 q 3.85,0 4,-3.9 z"
             id="path3387"
             style="stroke-width:1.10002" />
          <path
             fill="#f5873f"
             stroke="none"
             d="m 1146,456.35 q -0.05,-4.35 -4.1,-4.45 l -64.35,-1.3 q -4.1,-0.1 -3.75,4.25 l 0.15,1.9 q -0.15,-4.1 3.75,-4 l 64.25,1.35 q 3.9,0.05 4.05,4.15 z"
             id="path3389"
             style="stroke-width:1.10002" />
        </g>
      </g>
    </g>
    <g
       id="g3461"
       transform="matrix(0.94190537,0,0,1.0392407,-4.2095408,-50.961675)"
       style="stroke-width:1.01074">
      <g
         transform="matrix(0.26458333,0,0,0.26458333,-283.79622,662.81093)"
         id="g1679"
         style="stroke-width:1.01074">
        <g
           id="use1677"
           style="stroke-width:1.01074">
          <path
             fill="#677f80"
             stroke="none"
             d="m 1216.7,470.65 3.25,-6.5 h -18.5 l 3.25,6.5 h 12 m 7,-14 3,-6 h -32 l 3,6 z"
             id="path3413"
             style="stroke-width:1.04144" />
          <path
             fill="#98b6b8"
             stroke="none"
             d="m 1224.35,473.75 q -1.1,-1.1 -2.65,-1.1 h -22 q -1.55,0 -2.65,1.1 -0.75,0.75 -0.95,1.65 0.2,0.9 0.95,1.65 1.1,1.1 2.65,1.1 h 22 q 1.55,0 2.65,-1.1 0.75,-0.75 1,-1.65 -0.25,-0.9 -1,-1.65 m 6,-12.35 q -0.25,-0.9 -1,-1.65 -0.4,-0.4 -0.85,-0.65 -0.8,-0.45 -1.8,-0.45 h -32 q -1,0 -1.75,0.45 -0.5,0.25 -0.9,0.65 -0.75,0.75 -0.95,1.65 0.2,0.9 0.95,1.65 1.1,1.1 2.65,1.1 h 6.75 18.5 6.75 q 1.55,0 2.65,-1.1 0.75,-0.75 1,-1.65 m 1.35,-10.75 q 1.55,0 2.65,-1.1 0.75,-0.75 1,-1.65 -0.25,-0.9 -1,-1.65 -1.1,-1.1 -2.65,-1.1 h -42 q -1.55,0 -2.65,1.1 -0.75,0.75 -0.95,1.65 0.2,0.9 0.95,1.65 1.1,1.1 2.65,1.1 h 5 32 z"
             id="path3415"
             style="stroke-width:1.04144" />
          <path
             fill="#b1cccd"
             stroke="none"
             d="m 1225.45,474.4 q 0,-1.55 -1.1,-2.65 -1.1,-1.1 -2.65,-1.1 h -5 -12 -5 q -1.55,0 -2.65,1.1 -1.1,1.1 -1.1,2.65 0,0.55 0.15,1 0.2,-0.9 0.95,-1.65 1.1,-1.1 2.65,-1.1 h 22 q 1.55,0 2.65,1.1 0.75,0.75 1,1.65 0.1,-0.45 0.1,-1 m 3.9,-16.65 q -0.4,-0.4 -0.85,-0.65 -0.8,-0.45 -1.8,-0.45 h -3 -26 -3 q -1,0 -1.75,0.45 -0.5,0.25 -0.9,0.65 -1.1,1.1 -1.1,2.65 0,0.55 0.15,1 0.2,-0.9 0.95,-1.65 0.4,-0.4 0.9,-0.65 0.75,-0.45 1.75,-0.45 h 32 q 1,0 1.8,0.45 0.45,0.25 0.85,0.65 0.75,0.75 1,1.65 0.1,-0.45 0.1,-1 0,-1.55 -1.1,-2.65 m 5,-13.5 q -1.1,-1.1 -2.65,-1.1 h -42 q -1.55,0 -2.65,1.1 -1.1,1.1 -1.1,2.65 0,0.55 0.15,1 0.2,-0.9 0.95,-1.65 1.1,-1.1 2.65,-1.1 h 42 q 1.55,0 2.65,1.1 0.75,0.75 1,1.65 0.1,-0.45 0.1,-1 0,-1.55 -1.1,-2.65 z"
             id="path3417"
             style="stroke-width:1.04144" />
        </g>
      </g>
      <g
         transform="matrix(0.26458333,0,0,0.26458333,-283.79622,662.81093)"
         id="g2843"
         style="stroke-width:1.01074">
        <g
           id="use2841"
           style="stroke-width:1.01074">
          <path
             fill="#e86a17"
             stroke="none"
             d="m 1246,431.25 q -0.15,-4.1 -4.05,-4.15 l -64.25,-1.35 q -3.9,-0.1 -3.75,4 l 0.75,11.25 q 0.45,3.95 4.3,4.1 l 63,1.35 q 3.85,0 4,-3.9 z"
             id="path3393"
             style="stroke-width:1.04144" />
          <path
             fill="#f5873f"
             stroke="none"
             d="m 1246,429.35 q -0.05,-4.35 -4.1,-4.45 l -64.35,-1.3 q -4.1,-0.1 -3.75,4.25 l 0.15,1.9 q -0.15,-4.1 3.75,-4 l 64.25,1.35 q 3.9,0.05 4.05,4.15 z"
             id="path3395"
             style="stroke-width:1.04144" />
        </g>
      </g>
    </g>
  </g>
</svg>
